<?xml version="1.0" standalone="no"?>
<!DOCTYPE svg PUBLIC "-//W3C//DTD SVG 20010904//EN"
 "http://www.w3.org/TR/2001/REC-SVG-20010904/DTD/svg10.dtd">
<svg version="1.0" xmlns="http://www.w3.org/2000/svg"
 width="288.000000pt" height="288.000000pt" viewBox="0 0 288.000000 288.000000"
 preserveAspectRatio="xMidYMid meet">
<metadata>
Created by potrace 1.14, written by Peter Selinger 2001-2017
</metadata>
<g transform="translate(0.000000,288.000000) scale(0.100000,-0.100000)"
fill="#000000" stroke="none">
<path d="M2304 2520 c-18 -4 -63 -24 -100 -45 -257 -140 -472 -384 -632 -715
-50 -105 -115 -263 -128 -313 -3 -15 -9 -27 -13 -27 -3 0 -21 26 -40 58 -82
137 -146 225 -175 243 -91 56 -219 -10 -218 -113 1 -31 13 -57 55 -121 113
-169 199 -327 262 -477 31 -75 57 -107 102 -126 42 -18 77 -18 118 2 40 19 59
55 86 164 150 619 402 1019 757 1201 85 43 97 59 97 129 0 51 -4 63 -30 90
-47 49 -86 63 -141 50z m81 -103 c16 -22 20 -67 8 -67 -19 0 -207 -120 -258
-165 -92 -79 -99 -86 -160 -159 -189 -226 -326 -530 -438 -974 -26 -100 -40
-114 -90 -90 -25 12 -38 28 -52 65 -21 55 -112 241 -143 293 -12 19 -25 42
-29 50 -3 8 -34 58 -68 110 -90 137 -88 133 -61 159 22 21 61 27 82 13 19 -12
137 -194 188 -291 73 -136 92 -131 151 44 60 177 128 328 219 489 24 42 127
186 163 227 112 127 233 225 355 288 82 42 108 44 133 8z"/>
<path d="M795 2078 c-11 -6 -23 -16 -27 -22 -4 -6 -8 -306 -8 -667 0 -646 0
-656 20 -677 l21 -22 659 0 c647 0 660 0 680 20 20 20 20 33 20 644 0 343 -3
631 -6 640 -4 9 -18 16 -34 16 -16 0 -30 -7 -34 -16 -3 -9 -6 -288 -6 -620 l0
-604 -620 0 -620 0 0 620 0 620 423 2 422 3 3 23 c8 53 13 52 -447 52 -299 -1
-432 -4 -446 -12z"/>
</g>
</svg>
